<svg width="20" height="20" viewBox="0 0 20 20" fill="none" xmlns="http://www.w3.org/2000/svg">
<path d="M13.1568 11.5714L12.9736 11.946L12.6263 12.6565L11.9352 12.2721C11.0636 11.7872 10.2626 11.1849 9.55478 10.4822L9.55091 10.4784C8.8482 9.7705 8.24597 8.96954 7.76109 8.0979L7.42467 7.49314L8.00048 7.10927L8.35048 6.87593L8.39194 6.84829L8.4367 6.82638C8.59114 6.75076 8.72018 6.63376 8.81037 6.48983L8.38234 6.68856L7.21567 7.23023L7.2126 7.23165L7.2126 7.23165C7.20263 7.23622 7.19365 7.24272 7.1862 7.25078C7.17874 7.25883 7.17295 7.26828 7.16916 7.27858L13.1568 11.5714ZM13.1568 11.5714C13.1568 11.5714 13.1568 11.5713 13.1569 11.5712M13.1568 11.5714L13.1569 11.5712M8.93307 6.17984L8.7681 5.74322C8.62201 5.35658 8.50426 4.95982 8.41579 4.55609L8.4158 4.55609L8.41488 4.552C8.3691 4.34852 8.33088 4.14221 8.30027 3.93304L8.29668 3.90854L8.29149 3.88432C8.21424 3.52423 8.01387 3.20232 7.72488 2.97402C7.43842 2.74771 7.08264 2.62741 6.71782 2.6333L4.22484 2.6333L4.22389 2.63331C3.99908 2.63359 3.77691 2.68174 3.57216 2.77457C3.3674 2.86739 3.18476 3.00275 3.03639 3.17164L3.03126 3.17748L3.02625 3.18343C2.88182 3.35487 2.77365 3.55382 2.70828 3.76824C2.6429 3.98267 2.62168 4.20813 2.64589 4.43098L2.64582 4.43099L2.64715 4.44182C3.05289 7.72993 4.54174 10.7894 6.87885 13.1376C9.21596 15.4858 12.2683 16.9892 15.5545 17.4105L15.5545 17.4106L15.5598 17.4112C15.7856 17.4385 16.0146 17.4184 16.2322 17.352C16.4498 17.2857 16.6511 17.1746 16.8233 17.026L16.8233 17.026L16.8282 17.0218C16.9971 16.8734 17.1324 16.6907 17.2252 16.486M8.93307 6.17984L15.6415 10.7333L15.4801 11.4657C15.4792 11.4655 15.4782 11.4653 15.4773 11.4651C15.0735 11.376 14.6765 11.2579 14.2896 11.1117M8.93307 6.17984C8.96491 6.01778 8.95257 5.849 8.89574 5.69168C8.75239 5.30526 8.63471 4.90979 8.54349 4.50785L8.93307 6.17984ZM17.2252 16.486C17.2252 16.486 17.2252 16.486 17.2252 16.486L16.5422 16.1763L17.2252 16.486ZM17.2252 16.486C17.3181 16.2812 17.3662 16.0591 17.3665 15.8343H17.3665L17.3665 15.8285L17.3499 13.2375M17.3499 13.2375C17.3551 12.8737 17.2348 12.519 17.0091 12.2333C16.7808 11.9443 16.4589 11.7439 16.0988 11.6667L16.0746 11.6615L16.0501 11.6579C15.8411 11.6273 15.635 11.5891 15.4316 11.5434M17.3499 13.2375L17.3498 13.2285L16.5998 13.2333M17.3499 13.2375C17.3498 13.2417 17.3497 13.2458 17.3497 13.25L16.5998 13.2333M15.4316 11.5434C15.0151 11.4488 14.6046 11.3293 14.2024 11.1854L13.8657 11.065C14.0077 11.0472 14.1529 11.0627 14.2896 11.1117M15.4316 11.5434C15.4315 11.5433 15.4313 11.5433 15.4311 11.5433L15.2665 12.275M15.4316 11.5434C15.4319 11.5434 15.4322 11.5435 15.4325 11.5436L15.2665 12.275M14.2896 11.1117C14.2909 11.1122 14.2922 11.1127 14.2934 11.1131L14.5498 10.4083M14.2896 11.1117C14.2879 11.1111 14.2861 11.1104 14.2844 11.1097L14.5498 10.4083M14.5498 10.4083C14.1632 10.2677 13.7383 10.275 13.3568 10.4288C13.0793 10.5407 12.8391 10.7243 12.6591 10.9582C12.6609 10.9592 12.6627 10.9602 12.6644 10.9612L14.5498 10.4083ZM13.1569 11.5712C13.2175 11.4474 13.3048 11.3399 13.4112 11.2557L13.2641 11.5879L12.7516 12.7451C12.7471 12.7539 12.741 12.7618 12.7337 12.7686C12.7255 12.776 12.716 12.7817 12.7056 12.7855L12.6892 12.7913L12.6732 12.7979C12.6556 12.8051 12.6361 12.8061 12.618 12.8008C10.2202 11.6745 8.29276 9.74298 7.1716 7.34211C7.16708 7.33226 7.16453 7.32162 7.16409 7.31079C7.16364 7.29983 7.16536 7.28888 7.16916 7.27858L13.1569 11.5712ZM15.2665 12.275C15.4887 12.325 15.7137 12.3666 15.9415 12.4L13.9498 11.8916C14.3806 12.0457 14.8203 12.1737 15.2665 12.275ZM16.5998 13.2333L16.6165 15.8333L16.5998 13.2333ZM17.5082 13.2572L17.5082 15.75L17.5082 15.7534C17.5093 16.001 17.4579 16.2461 17.3574 16.4723C17.2569 16.6983 17.1097 16.9005 16.9254 17.0655C16.6043 17.3513 16.1892 17.5089 15.7593 17.5083H15.7582H15.4882C12.1781 17.0895 9.09975 15.5848 6.73558 13.2292C4.36065 10.8629 2.84177 7.77281 2.41885 4.44703L2.41889 4.44702L2.4178 4.43911C2.38343 4.19006 2.40312 3.93653 2.47554 3.69577C2.54796 3.45502 2.6714 3.23269 2.83747 3.04394C3.00353 2.85518 3.20831 2.70442 3.43788 2.60191C3.66744 2.49941 3.9164 2.44758 4.1678 2.44994L4.1678 2.44997H4.17484H6.67484V2.45005L6.68574 2.44989C7.10265 2.44383 7.50802 2.58682 7.82886 2.85312C8.14619 3.11651 8.3602 3.48341 8.43338 3.88898C8.46082 4.09568 8.49731 4.30464 8.54344 4.50761L17.5082 13.2572ZM16.0675 11.5715C16.0836 11.5744 16.0997 11.5776 16.1158 11.5809C16.144 11.5825 16.172 11.5833 16.1998 11.5833V10.8333L16.0675 11.5715ZM16.0135 16.6346C15.8958 16.6705 15.772 16.6814 15.6498 16.6666L16.3332 16.4583C16.2401 16.5387 16.1312 16.5988 16.0135 16.6346Z" stroke="#757575" stroke-width="1.5"/>
</svg>
